<?xml version="1.0" encoding="utf-8"?>
<!-- Generator: Adobe Illustrator 27.8.1, SVG Export Plug-In . SVG Version: 6.00 Build 0)  -->
<svg version="1.1" id="Layer_1" xmlns="http://www.w3.org/2000/svg" xmlns:xlink="http://www.w3.org/1999/xlink" x="0px" y="0px"
	 viewBox="0 0 70.9 70.9" style="enable-background:new 0 0 70.9 70.9;" xml:space="preserve">
<style type="text/css">
	.st0{fill:#EDFCF6;}
	.st1{fill:#5AD6A6;}
</style>
<g transform="translate(-248 -4274)">
	<g transform="matrix(1, 0, 0, 1, 248, 4274)">
		<path class="st0" d="M20.4,4.2h30.1c9.6,0,17.4,7.8,17.4,17.4v27.8c0,9.6-7.8,17.4-17.4,17.4H20.4C10.8,66.7,3,58.9,3,49.3V21.5
			C3,11.9,10.8,4.2,20.4,4.2z"/>
	</g>
	<path class="st1" d="M280.5,4319.8c-0.6,0.6-1.5,0.6-2,0c0,0,0,0,0,0l-8.1-8.1c-0.8-0.8-0.8-2.2,0-3.1c0,0,0,0,0,0l1-1
		c0.8-0.8,2.2-0.8,3.1,0c0,0,0,0,0,0l5.1,5.1l13.7-13.7c0.8-0.8,2.2-0.8,3.1,0c0,0,0,0,0,0l1,1c0.8,0.8,0.8,2.2,0,3.1c0,0,0,0,0,0
		L280.5,4319.8z"/>
</g>
</svg>
