<?xml version="1.0" encoding="utf-8"?>
<!-- Generator: Adobe Illustrator 27.8.1, SVG Export Plug-In . SVG Version: 6.00 Build 0)  -->
<svg version="1.1" id="Layer_1" xmlns="http://www.w3.org/2000/svg" xmlns:xlink="http://www.w3.org/1999/xlink" x="0px" y="0px"
	 viewBox="0 0 908.2 557.4" style="enable-background:new 0 0 908.2 557.4;" xml:space="preserve">
<style type="text/css">
	.st0{clip-path:url(#SVGID_00000163788279469543913200000009433160227204268984_);}
	.st1{fill:url(#SVGID_00000133530680161068338720000005091860605673075886_);}
	.st2{fill:#FFFFFF;}
	.st3{fill:#F2F2F2;}
	.st4{fill:#E4E7EC;}
	.st5{fill:#FDFDFE;}
	.st6{opacity:0.45;}
	.st7{clip-path:url(#SVGID_00000029004164548150562400000016162511258556040072_);}
	.st8{clip-path:url(#SVGID_00000042716645840174480580000001323579671907050679_);}
	.st9{clip-path:url(#SVGID_00000149343553219311798430000006321766139827935629_);}
	.st10{fill:#EBEFF6;}
	.st11{clip-path:url(#SVGID_00000040533024012884142470000008102331203083229589_);}
</style>
<g transform="translate(-90)">
	<g transform="translate(156.515)">
		<g>
			<defs>
				<path id="SVGID_1_" d="M20.5,0C9.2,0,0,9.2,0,20.5c0,0,0,0,0,0v507.2h779V20.5c0-11.3-9.2-20.5-20.5-20.5c0,0,0,0,0,0H20.5z"/>
			</defs>
			<clipPath id="SVGID_00000000903522416608235700000011829355306783231399_">
				<use xlink:href="#SVGID_1_"  style="overflow:visible;"/>
			</clipPath>
			<g style="clip-path:url(#SVGID_00000000903522416608235700000011829355306783231399_);">
				
					<linearGradient id="SVGID_00000144305867358451579940000007928336574240508046_" gradientUnits="userSpaceOnUse" x1="259.3086" y1="406.0078" x2="259.3225" y2="406.0078" gradientTransform="matrix(297.1689 -725.1495 -852.1778 -349.2256 269114.8125 330595.0312)">
					<stop  offset="0" style="stop-color:#323232"/>
					<stop  offset="1" style="stop-color:#1C1C1C"/>
				</linearGradient>
				<polygon style="fill:url(#SVGID_00000144305867358451579940000007928336574240508046_);" points="-185.1,451.8 112,-273.3 
					964.2,75.9 667,801 				"/>
			</g>
		</g>
	</g>
	<g transform="translate(0 0.002)">
		<path class="st2" d="M935.6,527.7h-779V20.5C156.5,9.2,165.7,0,177,0h738c11.3,0,20.5,9.2,20.5,20.5L935.6,527.7z"/>
		<rect x="174.5" y="32.4" class="st3" width="743" height="467.5"/>
		<path class="st4" d="M998.2,532.7v1.9c0,4.1-2.6,8.1-6.7,11.4c-8.1,6.8-21.6,11.4-29.9,11.4H126.9c-8.3,0-21.8-4.6-29.9-11.4
			c-4-3.3-6.7-7.3-6.7-11.4v-1.9H998.2z"/>
		<path class="st5" d="M997.8,531.1v3.5c0,4.2-2.6,8.1-6.7,11.4H96.7c-4-3.3-6.7-7.3-6.7-11.4v-3.5c0-1.9,1.6-3.5,3.5-3.5h900.9
			C996.3,527.7,997.8,529.2,997.8,531.1"/>
		<g transform="translate(686.157 527.663)" class="st6">
			<g>
				<defs>
					<rect id="SVGID_00000180325687121575371050000013288813181791310761_" x="-209.2" y="0" width="134.8" height="8.9"/>
				</defs>
				<clipPath id="SVGID_00000178892291413706228940000017518752160580805007_">
					<use xlink:href="#SVGID_00000180325687121575371050000013288813181791310761_"  style="overflow:visible;"/>
				</clipPath>
				<g transform="translate(-209.157)" style="clip-path:url(#SVGID_00000178892291413706228940000017518752160580805007_);">
					<path class="st4" d="M83.1,0H0c0.4,5,4.6,8.9,9.6,8.9h115.6c5,0,9.2-3.9,9.6-8.9H83.1z"/>
				</g>
			</g>
		</g>
		<g transform="translate(685.845 527.635)">
			<g>
				<defs>
					<rect id="SVGID_00000040534188871230263980000009097970993436629400_" x="0" y="0" width="135.5" height="9.2"/>
				</defs>
				<clipPath id="SVGID_00000168835788650291159960000017646161275664138143_">
					<use xlink:href="#SVGID_00000040534188871230263980000009097970993436629400_"  style="overflow:visible;"/>
				</clipPath>
				<g style="clip-path:url(#SVGID_00000168835788650291159960000017646161275664138143_);">
					<path class="st2" d="M125.5,9.2H9.9c-5.2,0-9.5-4-9.9-9.2L0.6,0C1,4.9,5.1,8.6,9.9,8.6h115.6c4.9,0,8.9-3.7,9.3-8.6l0.6,0.1
						C135.1,5.2,130.7,9.2,125.5,9.2"/>
				</g>
			</g>
		</g>
		<g transform="translate(156.513 -0.002)">
			<g>
				<defs>
					<rect id="SVGID_00000062191837136707308990000014130447932183799213_" x="0" y="0" width="779.1" height="527.7"/>
				</defs>
				<clipPath id="SVGID_00000066480201049024774800000004150502174433677465_">
					<use xlink:href="#SVGID_00000062191837136707308990000014130447932183799213_"  style="overflow:visible;"/>
				</clipPath>
				<g style="clip-path:url(#SVGID_00000066480201049024774800000004150502174433677465_);">
					<path class="st10" d="M758.6,1.8c10.3,0,18.7,8.4,18.7,18.7v505.4H1.8V20.5c0-10.3,8.4-18.7,18.7-18.7H758.6 M758.6,0h-738
						C9.2,0,0,9.2,0,20.5v507.2h779.1V20.5C779.1,9.2,769.9,0,758.6,0"/>
				</g>
			</g>
		</g>
		<path class="st2" d="M553.9,16.7c0,3-2.4,5.5-5.5,5.5c-3,0-5.5-2.4-5.5-5.5s2.4-5.5,5.5-5.5C551.5,11.2,553.9,13.6,553.9,16.7
			C553.9,16.6,553.9,16.6,553.9,16.7"/>
	</g>
</g>
<g>
	<defs>
		<rect id="SVGID_00000173144193881977359010000002019363969975453867_" x="84.5" y="32.4" width="743" height="467.5"/>
	</defs>
	<clipPath id="SVGID_00000159463393714616564270000015236245486702501048_">
		<use xlink:href="#SVGID_00000173144193881977359010000002019363969975453867_"  style="overflow:visible;"/>
	</clipPath>
	
		<g id="dU3X46_00000152983200194670042650000016575926117723927971_" style="clip-path:url(#SVGID_00000159463393714616564270000015236245486702501048_);">
		
			<image style="overflow:visible;" width="2896" height="1496" id="dU3X46_00000074429137113957868020000010430516746411573403_" xlink:href="BFF565E76D5AC843.png"  transform="matrix(0.2558 0 0 0.2558 84.53 32.434)">
		</image>
	</g>
	
		<g id="lVpvkV_00000150815835308529655600000011670798036910205114_" style="clip-path:url(#SVGID_00000159463393714616564270000015236245486702501048_);">
		
			<image style="overflow:visible;" width="2900" height="1422" id="lVpvkV_00000103260981222402065030000007850602961527287969_" xlink:href="BFF565E76D5AC841.png"  transform="matrix(0.2553 0 0 0.2553 84.53 374.0753)">
		</image>
	</g>
</g>
</svg>
